<svg width="32" height="32" viewBox="0 0 32 32" fill="none" xmlns="http://www.w3.org/2000/svg">
<path d="M20.3838 10.8846C20.3838 13.3062 18.4208 15.2692 15.9992 15.2692C13.5777 15.2692 11.6146 13.3062 11.6146 10.8846C11.6146 8.46306 13.5777 6.5 15.9992 6.5C18.4208 6.5 20.3838 8.46306 20.3838 10.8846Z" stroke="#595D62"/>
<path d="M15.9992 25.5C20.3425 25.5 22.8449 24.3797 24.0057 23.6586C24.5488 23.3212 24.8166 22.6999 24.7613 22.0563C24.6859 21.1773 24.3788 20.2994 24.0661 19.6031C23.6555 18.6888 22.7051 18.1923 21.7028 18.1923H10.2956C9.29334 18.1923 8.34293 18.6888 7.93236 19.6031C7.61966 20.2994 7.31254 21.1773 7.2371 22.0563C7.18186 22.6999 7.44958 23.3212 7.99275 23.6586C9.15355 24.3797 11.6559 25.5 15.9992 25.5Z" stroke="#595D62"/>
</svg>
