<svg width="16" height="16" viewBox="0 0 16 16" fill="none" xmlns="http://www.w3.org/2000/svg">
<path d="M11.2879 4.16346C11.2879 5.97963 9.81558 7.45192 7.99941 7.45192C6.18324 7.45192 4.71095 5.97963 4.71095 4.16346C4.71095 2.34729 6.18324 0.875 7.99941 0.875C9.81558 0.875 11.2879 2.34729 11.2879 4.16346Z" stroke="white"/>
<path d="M7.99941 15.125C11.2569 15.125 13.1337 14.2848 14.0043 13.7439C14.4116 13.4909 14.6124 13.0249 14.571 12.5422C14.5144 11.883 14.2841 11.2246 14.0495 10.7023C13.7416 10.0166 13.0288 9.64423 12.2771 9.64423H3.72168C2.97001 9.64423 2.2572 10.0166 1.94927 10.7023C1.71474 11.2245 1.4844 11.883 1.42782 12.5422C1.38639 13.0249 1.58718 13.4909 1.99456 13.7439C2.86516 14.2848 4.74193 15.125 7.99941 15.125Z" stroke="white"/>
</svg>
