<?xml version="1.0" encoding="UTF-8"?>
<svg version="1.1" xmlns="http://www.w3.org/2000/svg" width="300" height="300">
<path d="M0 0 C0.74372864 0.00087616 1.48745728 0.00175232 2.25372314 0.00265503 C32.73341268 0.12055933 61.46844059 8.84203273 86.5625 26.375 C87.54089844 27.055625 88.51929688 27.73625 89.52734375 28.4375 C122.0492225 52.23595762 142.79864745 86.79008983 149.64453125 126.328125 C150.80864998 134.15543224 150.96033719 141.91921777 150.9375 149.8125 C150.93662384 150.55622864 150.93574768 151.29995728 150.93484497 152.06622314 C150.81694067 182.54591268 142.09546727 211.28094059 124.5625 236.375 C123.881875 237.35339844 123.20125 238.33179688 122.5 239.33984375 C98.70154238 271.8617225 64.14741017 292.61114745 24.609375 299.45703125 C16.78206776 300.62114998 9.01828223 300.77283719 1.125 300.75 C0.00940704 300.74868576 0.00940704 300.74868576 -1.12872314 300.74734497 C-31.60841268 300.62944067 -60.34344059 291.90796727 -85.4375 274.375 C-86.41589844 273.694375 -87.39429688 273.01375 -88.40234375 272.3125 C-120.9242225 248.51404238 -141.67364745 213.95991017 -148.51953125 174.421875 C-149.68364998 166.59456776 -149.83533719 158.83078223 -149.8125 150.9375 C-149.81162384 150.19377136 -149.81074768 149.45004272 -149.80984497 148.68377686 C-149.69194067 118.20408732 -140.97046727 89.46905941 -123.4375 64.375 C-122.756875 63.39660156 -122.07625 62.41820312 -121.375 61.41015625 C-97.57654238 28.8882775 -63.02241017 8.13885255 -23.484375 1.29296875 C-15.65706776 0.12885002 -7.89328223 -0.02283719 0 0 Z " fill="#F8FBFD" transform="translate(149.4375,-0.37499999999999994)"/>
<path d="M0 0 C2.21404825 1.66536614 4.29180951 3.40693659 6.36328125 5.24609375 C7.22824219 5.99246094 8.09320313 6.73882812 8.984375 7.5078125 C13.16615387 11.17976637 17.07942832 14.72234212 20.36328125 19.24609375 C20.36328125 19.90609375 20.36328125 20.56609375 20.36328125 21.24609375 C13.13054292 21.66690762 6.8998237 20.04471606 -0.07421875 18.24609375 C-14.77735282 14.68928263 -28.91220088 11.93752912 -42.63671875 20.24609375 C-46.95588359 22.9127039 -46.95588359 22.9127039 -49.1959343 27.21883583 C-49.41598249 29.6746002 -49.44428734 32.06891694 -49.40966797 34.53442383 C-49.4202977 35.46174316 -49.43092743 36.3890625 -49.44187927 37.34448242 C-49.4699292 40.40208216 -49.45587115 43.45795547 -49.44140625 46.515625 C-49.45265611 48.63841764 -49.46653662 50.76119784 -49.48294067 52.88395691 C-49.51900759 58.46539302 -49.51934844 64.04628168 -49.51226807 69.62780762 C-49.51135578 75.32553934 -49.54420487 81.02306522 -49.57421875 86.72070312 C-49.62810828 97.89589066 -49.64425947 109.07079065 -49.63671875 120.24609375 C-49.04286377 119.83979736 -48.44900879 119.43350098 -47.8371582 119.01489258 C-46.64932739 118.21088013 -46.64932739 118.21088013 -45.4375 117.390625 C-44.65802002 116.86057861 -43.87854004 116.33053223 -43.07543945 115.78442383 C-34.05067375 110.09165691 -25.18643046 107.87108969 -14.61523438 109.79638672 C-10.26441343 110.80047419 -5.9446844 111.91087653 -1.62109375 113.02539062 C6.65886047 115.07073646 13.58291797 115.61892494 22.36328125 116.24609375 C22.36328125 87.86609375 22.36328125 59.48609375 22.36328125 30.24609375 C25.00328125 29.91609375 27.64328125 29.58609375 30.36328125 29.24609375 C30.38640268 41.74566475 30.40419531 54.2452307 30.41509342 66.74481869 C30.42032269 72.54822988 30.42742112 78.3516265 30.4387207 84.1550293 C30.44954803 89.75060228 30.45555775 95.3461612 30.45815849 100.94174385 C30.46001302 103.08168319 30.46363416 105.22162171 30.46901131 107.3615551 C30.47621969 110.34774341 30.47727228 113.33387282 30.47680664 116.32006836 C30.48040192 117.21414398 30.48399719 118.1082196 30.48770142 119.02938843 C30.47733341 125.13204159 30.47733341 125.13204159 29.36328125 126.24609375 C18.48188193 127.02333656 7.39515167 124.3451182 -3.07421875 121.55859375 C-16.20870808 118.46037042 -29.67627026 118.79079936 -41.3828125 125.91796875 C-43.09296813 127.00015722 -44.7836303 128.11429256 -46.4453125 129.26953125 C-48.63671875 130.24609375 -48.63671875 130.24609375 -50.55859375 129.59765625 C-51.244375 129.15164062 -51.93015625 128.705625 -52.63671875 128.24609375 C-54.57191702 127.24164669 -56.50962801 126.24203251 -58.44921875 125.24609375 C-59.44566406 124.73046875 -60.44210938 124.21484375 -61.46875 123.68359375 C-77.54354627 116.38948151 -94.66708577 121.0808498 -111.09057617 124.6953125 C-115.57376503 125.66511536 -119.85816161 126.38673619 -124.44921875 126.37109375 C-125.21878906 126.37367188 -125.98835938 126.37625 -126.78125 126.37890625 C-128.63671875 126.24609375 -128.63671875 126.24609375 -129.63671875 125.24609375 C-129.73200095 122.26311161 -129.7622405 119.3033303 -129.75024414 116.32006836 C-129.75039017 115.38357956 -129.75053619 114.44709076 -129.75068665 113.48222351 C-129.74998712 110.37093836 -129.7421929 107.25971226 -129.734375 104.1484375 C-129.73251096 101.99752332 -129.73108699 99.84660872 -129.73008728 97.69569397 C-129.726261 92.02227617 -129.71642977 86.3488838 -129.7053833 80.67547607 C-129.69517155 74.89107609 -129.69059017 69.10667202 -129.68554688 63.32226562 C-129.6748076 51.96353047 -129.65772986 40.60481422 -129.63671875 29.24609375 C-128.83621094 29.11557617 -128.03570312 28.98505859 -127.2109375 28.85058594 C-124.55919002 28.52725748 -124.55919002 28.52725748 -123.44921875 26.57421875 C-123.18109375 25.8884375 -122.91296875 25.20265625 -122.63671875 24.49609375 C-121.05041125 20.4998191 -118.74323635 18.20251606 -115.63671875 15.24609375 C-114.86972656 14.44429687 -114.10273437 13.6425 -113.3125 12.81640625 C-100.09439627 -0.86050769 -84.1224824 -9.47680799 -65.63671875 -13.75390625 C-64.8890625 -13.94339844 -64.14140625 -14.13289063 -63.37109375 -14.328125 C-41.08804521 -17.79791399 -18.66381978 -12.41489641 0 0 Z " fill="#C3E6F4" transform="translate(198.63671875,75.75390625)"/>
<path d="M0 0 C0.74372864 0.00087616 1.48745728 0.00175232 2.25372314 0.00265503 C32.73341268 0.12055933 61.46844059 8.84203273 86.5625 26.375 C87.54089844 27.055625 88.51929688 27.73625 89.52734375 28.4375 C122.0492225 52.23595762 142.79864745 86.79008983 149.64453125 126.328125 C150.80864998 134.15543224 150.96033719 141.91921777 150.9375 149.8125 C150.93662384 150.55622864 150.93574768 151.29995728 150.93484497 152.06622314 C150.81694067 182.54591268 142.09546727 211.28094059 124.5625 236.375 C123.881875 237.35339844 123.20125 238.33179688 122.5 239.33984375 C98.70154238 271.8617225 64.14741017 292.61114745 24.609375 299.45703125 C16.78206776 300.62114998 9.01828223 300.77283719 1.125 300.75 C0.00940704 300.74868576 0.00940704 300.74868576 -1.12872314 300.74734497 C-31.60841268 300.62944067 -60.34344059 291.90796727 -85.4375 274.375 C-86.41589844 273.694375 -87.39429688 273.01375 -88.40234375 272.3125 C-120.9242225 248.51404238 -141.67364745 213.95991017 -148.51953125 174.421875 C-149.68364998 166.59456776 -149.83533719 158.83078223 -149.8125 150.9375 C-149.81162384 150.19377136 -149.81074768 149.45004272 -149.80984497 148.68377686 C-149.69194067 118.20408732 -140.97046727 89.46905941 -123.4375 64.375 C-122.756875 63.39660156 -122.07625 62.41820312 -121.375 61.41015625 C-97.57654238 28.8882775 -63.02241017 8.13885255 -23.484375 1.29296875 C-15.65706776 0.12885002 -7.89328223 -0.02283719 0 0 Z M-105.11914062 55.22460938 C-112.67580308 63.89603945 -119.00021776 73.2501295 -124.4375 83.375 C-124.75557617 83.96716309 -125.07365234 84.55932617 -125.40136719 85.16943359 C-135.11327606 103.66468325 -139.81329788 123.63695582 -139.69824219 144.44433594 C-139.6875503 146.73920304 -139.69817747 149.03328199 -139.7109375 151.328125 C-139.74397879 183.18013988 -128.3957478 214.25477284 -107.4375 238.375 C-106.74011719 239.19355469 -106.04273438 240.01210937 -105.32421875 240.85546875 C-97.05893466 250.32457753 -87.98132029 258.52856691 -77.4375 265.375 C-76.02791016 266.32826172 -76.02791016 266.32826172 -74.58984375 267.30078125 C-42.11662776 288.44326701 -4.34162508 291.99043904 32.92578125 284.71875 C63.82842092 277.69352204 92.70718471 258.80464646 111.5625 233.375 C111.95646973 232.84487305 112.35043945 232.31474609 112.75634766 231.76855469 C130.47422267 207.56887284 140.0020368 179.14977446 139.875 149.1875 C139.87317719 148.50524353 139.87135437 147.82298706 139.86947632 147.12005615 C139.82197161 136.54615905 139.19852734 126.64050485 136.5625 116.375 C136.4068457 115.71532227 136.25119141 115.05564453 136.09082031 114.37597656 C131.99528774 97.16820001 124.16228891 80.52986215 113.5625 66.375 C112.99789062 65.58996094 112.43328125 64.80492187 111.8515625 63.99609375 C101.88007431 50.78060613 89.55012501 39.20206359 75.5625 30.375 C74.4796875 29.68148438 73.396875 28.98796875 72.28125 28.2734375 C14.67075394 -6.58898885 -60.14712328 5.76061353 -105.11914062 55.22460938 Z " fill="#1B4256" transform="translate(149.4375,-0.37499999999999994)"/>
<path d="M0 0 C6.57288622 1.6931988 12.47162277 2.54566593 19.26123047 2.13549805 C19.91227214 4.44669596 20.5633138 6.75789388 21.21435547 9.0690918 C22.06893726 11.33545272 22.06893726 11.33545272 24.37060547 11.9206543 C24.99451172 11.99155273 25.61841797 12.06245117 26.26123047 12.13549805 C23.95123047 12.13549805 21.64123047 12.13549805 19.26123047 12.13549805 C19.26123047 40.51549805 19.26123047 68.89549805 19.26123047 98.13549805 C9.07185766 98.13549805 1.51874861 97.66022176 -7.98876953 95.13549805 C-20.65738996 91.81894883 -30.50849385 90.58392862 -42.73876953 96.13549805 C-45.00812396 97.62897368 -47.06833636 99.1831217 -49.11767578 100.96362305 C-50.73876953 102.13549805 -50.73876953 102.13549805 -53.73876953 102.13549805 C-53.77025058 89.85242511 -53.76419473 77.56999789 -53.71030331 65.2869854 C-53.68645621 59.5833107 -53.67550796 53.88022047 -53.6940918 48.17651367 C-53.71155345 42.67130061 -53.69506223 37.16713735 -53.65509224 31.66205215 C-53.64580277 29.5625502 -53.64871868 27.46295739 -53.66407585 25.36349106 C-53.6835135 22.42027375 -53.65943757 19.48036917 -53.62524414 16.53735352 C-53.64106033 15.67060501 -53.65687653 14.80385651 -53.673172 13.9108429 C-53.59448066 10.38746155 -53.5009421 8.06411432 -51.21667671 5.28100967 C-35.90010798 -8.09841966 -18.05405106 -4.72780615 0 0 Z " fill="#D9EDF7" transform="translate(201.73876953125,93.864501953125)"/>
<path d="M0 0 C27.56402171 23.091399 47.07866026 55.40720757 51.32055664 91.52099609 C52.77823973 109.4166434 52.42018794 127.68475564 47.5234375 145.01171875 C47.32508301 145.75067383 47.12672852 146.48962891 46.92236328 147.25097656 C42.21779904 164.39999276 33.86195094 181.28614985 22.5234375 195.01171875 C22.07887207 195.55876465 21.63430664 196.10581055 21.17626953 196.66943359 C-2.28232056 225.42638883 -35.24376797 244.17238438 -72.27880859 248.49389648 C-98.44782215 251.10068665 -123.57948036 246.89780405 -147.4765625 236.01171875 C-148.44980469 235.57214844 -149.42304688 235.13257813 -150.42578125 234.6796875 C-183.13694677 219.15791876 -208.17166456 189.81753177 -220.4765625 156.01171875 C-229.03160534 129.74205831 -232.08212096 97.73682683 -223.4765625 71.01171875 C-223.23518555 70.24053711 -222.99380859 69.46935547 -222.74511719 68.67480469 C-217.55914791 52.50371308 -210.1460513 37.28541794 -199.4765625 24.01171875 C-199.07743652 23.50721191 -198.67831055 23.00270508 -198.26708984 22.48291016 C-174.50381184 -7.39585061 -140.5844745 -26.23673897 -102.61523438 -30.78759766 C-65.71067639 -34.2505596 -28.8229598 -23.24418367 0 0 Z M-181.4765625 15.01171875 C-182.14042969 15.61113281 -182.80429688 16.21054687 -183.48828125 16.828125 C-206.37564986 38.32275313 -219.64191037 71.30334564 -220.75390625 102.3515625 C-221.01502854 114.60565854 -220.52546145 126.10002852 -217.4765625 138.01171875 C-217.14421465 139.44523914 -216.81219673 140.87883604 -216.48046875 142.3125 C-208.65831279 174.46247137 -187.50910453 203.42084909 -159.4765625 221.01171875 C-148.0423791 227.78477633 -136.37837208 233.66094203 -123.4765625 237.01171875 C-122.77370117 237.2034668 -122.07083984 237.39521484 -121.34667969 237.59277344 C-87.09825139 246.69302768 -51.07850151 240.28196477 -20.63623047 222.96484375 C8.62867551 205.83572597 30.42443932 177.69383467 39.5234375 145.01171875 C39.82894531 143.91859375 40.13445312 142.82546875 40.44921875 141.69921875 C46.03397197 120.52479895 46.18350177 93.95953253 39.5234375 73.01171875 C39.153396 71.83464355 39.153396 71.83464355 38.77587891 70.63378906 C27.51042074 35.82082626 4.33001411 8.60114036 -27.65625 -9.109375 C-79.41675563 -35.48232433 -139.94455386 -24.11468803 -181.4765625 15.01171875 Z " fill="#367FA6" transform="translate(237.4765625,38.98828125)"/>
<path d="M0 0 C27.56402171 23.091399 47.07866026 55.40720757 51.32055664 91.52099609 C52.77823973 109.4166434 52.42018794 127.68475564 47.5234375 145.01171875 C47.32508301 145.75067383 47.12672852 146.48962891 46.92236328 147.25097656 C42.21779904 164.39999276 33.86195094 181.28614985 22.5234375 195.01171875 C22.07887207 195.55876465 21.63430664 196.10581055 21.17626953 196.66943359 C-2.28232056 225.42638883 -35.24376797 244.17238438 -72.27880859 248.49389648 C-98.44782215 251.10068665 -123.57948036 246.89780405 -147.4765625 236.01171875 C-148.44980469 235.57214844 -149.42304688 235.13257813 -150.42578125 234.6796875 C-183.13694677 219.15791876 -208.17166456 189.81753177 -220.4765625 156.01171875 C-229.03160534 129.74205831 -232.08212096 97.73682683 -223.4765625 71.01171875 C-223.23518555 70.24053711 -222.99380859 69.46935547 -222.74511719 68.67480469 C-217.55914791 52.50371308 -210.1460513 37.28541794 -199.4765625 24.01171875 C-199.07743652 23.50721191 -198.67831055 23.00270508 -198.26708984 22.48291016 C-174.50381184 -7.39585061 -140.5844745 -26.23673897 -102.61523438 -30.78759766 C-65.71067639 -34.2505596 -28.8229598 -23.24418367 0 0 Z M-175.4765625 4.01171875 C-175.98525879 4.44210449 -176.49395508 4.87249023 -177.01806641 5.31591797 C-203.72220903 28.14351627 -220.59559355 60.02522325 -224.4765625 95.01171875 C-224.75220224 99.62049461 -224.81111164 104.20796054 -224.7890625 108.82421875 C-224.78414795 110.05253418 -224.7792334 111.28084961 -224.77416992 112.54638672 C-224.65581152 121.73464082 -223.79789434 130.09440741 -221.4765625 139.01171875 C-221.15481592 140.41894371 -220.83456668 141.82651167 -220.515625 143.234375 C-216.35598961 160.62276325 -208.43382733 176.89891652 -197.4765625 191.01171875 C-196.38214844 192.43677734 -196.38214844 192.43677734 -195.265625 193.890625 C-176.7878613 217.19854097 -153.07012494 232.19044972 -124.7890625 240.76171875 C-123.81066406 241.06009644 -123.81066406 241.06009644 -122.8125 241.36450195 C-111.97162833 244.4919861 -101.35059685 245.33306569 -90.1015625 245.26171875 C-88.88984375 245.26945312 -87.678125 245.2771875 -86.4296875 245.28515625 C-48.99904901 245.20534679 -16.37057722 229.71230611 10.0859375 203.82421875 C24.58725357 189.24484101 34.86025374 171.79650466 41.4609375 152.32421875 C41.73123779 151.53072021 42.00153809 150.73722168 42.2800293 149.91967773 C46.55397393 136.50217212 48.08611938 123.27117772 47.9609375 109.26171875 C47.95756378 108.52259247 47.95419006 107.78346619 47.95071411 107.02194214 C47.71008002 70.47754615 33.31088389 37.69367431 7.7109375 11.69921875 C-17.76912988 -13.39341116 -50.93640762 -27.12797518 -86.6640625 -27.30078125 C-119.19394494 -27.04902723 -150.50371008 -17.32376601 -175.4765625 4.01171875 Z " fill="#7CCAED" transform="translate(237.4765625,38.98828125)"/>
<path d="M0 0 C2.97 0.33 5.94 0.66 9 1 C9 29.38 9 57.76 9 87 C22.95674672 85.43818423 22.95674672 85.43818423 36.3125 82.375 C48.45728966 79.15369699 58.28972186 78.6771463 70 84 C72.48920833 85.50527347 74.83631043 87.07983131 77.16015625 88.828125 C79.05816069 90.26861153 79.05816069 90.26861153 82 90 C82.721875 89.4225 83.44375 88.845 84.1875 88.25 C92.38013776 81.69588979 101.61458653 79.24829722 112 80 C117.40534803 80.98223494 122.69829234 82.40862081 128.015625 83.77929688 C136.29557922 85.82464271 143.21963672 86.37283119 152 87 C152 58.62 152 30.24 152 1 C154.64 0.67 157.28 0.34 160 0 C160.02312143 12.499571 160.04091406 24.99913695 160.05181217 37.49872494 C160.05704144 43.30213613 160.06413987 49.10553275 160.07543945 54.90893555 C160.08626678 60.50450853 160.0922765 66.10006745 160.09487724 71.6956501 C160.09673177 73.83558944 160.10035291 75.97552796 160.10573006 78.11546135 C160.11293844 81.10164966 160.11399103 84.08777907 160.11352539 87.07397461 C160.11712067 87.96805023 160.12071594 88.86212585 160.12442017 89.78329468 C160.11405216 95.88594784 160.11405216 95.88594784 159 97 C148.11860068 97.77724281 137.03187042 95.09902445 126.5625 92.3125 C113.42801067 89.21427667 99.96044849 89.54470561 88.25390625 96.671875 C86.54375062 97.75406347 84.85308845 98.86819881 83.19140625 100.0234375 C81 101 81 101 79.078125 100.3515625 C78.39234375 99.90554687 77.7065625 99.45953125 77 99 C75.06480173 97.99555294 73.12709074 96.99593876 71.1875 96 C70.19105469 95.484375 69.19460937 94.96875 68.16796875 94.4375 C52.09317248 87.14338776 34.96963298 91.83475605 18.54614258 95.44921875 C14.06295372 96.41902161 9.77855714 97.14064244 5.1875 97.125 C4.41792969 97.12757813 3.64835937 97.13015625 2.85546875 97.1328125 C1 97 1 97 0 96 C-0.0952822 93.01701786 -0.12552175 90.05723655 -0.11352539 87.07397461 C-0.11367142 86.13748581 -0.11381744 85.20099701 -0.1139679 84.23612976 C-0.11326837 81.12484461 -0.10547415 78.01361851 -0.09765625 74.90234375 C-0.09579221 72.75142957 -0.09436824 70.60051497 -0.09336853 68.44960022 C-0.08954225 62.77618242 -0.07971102 57.10279005 -0.06866455 51.42938232 C-0.0584528 45.64498234 -0.05387142 39.86057827 -0.04882812 34.07617188 C-0.03808885 22.71743672 -0.02101111 11.35872047 0 0 Z " fill="#377FA6" transform="translate(69,105)"/>
<path d="M0 0 C0.66902344 0.54398438 1.33804688 1.08796875 2.02734375 1.6484375 C4.05834427 2.89394346 4.05834427 2.89394346 6.375 2.01171875 C7.261875 1.55410156 8.14875 1.09648437 9.0625 0.625 C10.18785156 0.06683594 11.31320313 -0.49132812 12.47265625 -1.06640625 C14.31080927 -2.00432036 16.14568913 -2.94820428 17.97851562 -3.89648438 C32.27214688 -11.17464688 49.2122884 -7.06285743 64.0625 -3.375 C50.79464857 12.87111288 32.65849366 21.06718221 12.0625 23.625 C-8.97808824 25.02312188 -28.64816645 19.38304503 -44.80859375 5.51953125 C-45.51113281 4.89433594 -46.21367188 4.26914063 -46.9375 3.625 C-48.3122962 2.47892215 -49.68727592 1.33306439 -51.0625 0.1875 C-52.01125 -0.658125 -52.96 -1.50375 -53.9375 -2.375 C-53.9375 -2.705 -53.9375 -3.035 -53.9375 -3.375 C-35.55692451 -7.63275482 -16.50285813 -11.81485409 0 0 Z " fill="#7CCAEE" transform="translate(143.9375,202.375)"/>
<path d="M0 0 C2.41336201 2.13842203 4.78232346 4.27138118 7.02734375 6.5859375 C7.02734375 6.9159375 7.02734375 7.2459375 7.02734375 7.5859375 C1.96423121 7.16401146 -2.59543525 6.45157404 -7.47265625 5.0234375 C-19.79297937 1.86478323 -31.76117524 2.20401754 -42.97265625 8.5859375 C-45.44476085 10.14682266 -47.68006905 11.76228859 -49.97265625 13.5859375 C-50.57851562 13.11542969 -51.184375 12.64492187 -51.80859375 12.16015625 C-62.79194951 3.99867805 -73.48708234 2.13562426 -86.97265625 3.5859375 C-90.66750236 4.26864645 -94.28100543 5.18528156 -97.88330078 6.25024414 C-102.7105904 7.67329278 -102.7105904 7.67329278 -105.97265625 6.5859375 C-76.85878219 -21.42094515 -32.67882914 -26.53812931 0 0 Z " fill="#91D3F0" transform="translate(198.97265625,87.4140625)"/>
<path d="M0 0 C4.76629487 0.73959748 6.03646823 2.74432898 9.20703125 6.203125 C22.8476029 19.51314968 42.75237783 26.11618462 61.51367188 25.91601562 C80.57210934 25.27277039 99.63511873 18.90075697 113.125 5.0625 C116.20559259 2.08534337 117.69447974 0.67732555 121.98046875 0.1484375 C124.95889162 0.40682354 127.73056157 0.82499911 130.625 1.5625 C115.30827019 20.60492084 94.96116232 32.23690155 70.625 35.5625 C46.94738217 37.5607334 23.44399084 31.01110776 5.0625 15.72265625 C1.07848298 12.19194886 -2.90254953 8.60530465 -6.375 4.5625 C-6.375 3.9025 -6.375 3.2425 -6.375 2.5625 C-7.365 2.2325 -8.355 1.9025 -9.375 1.5625 C-6.26269213 0.95522041 -3.12795688 0.52132615 0 0 Z " fill="#C8E9F7" transform="translate(88.375,199.4375)"/>
<path d="M0 0 C2.42110735 1.58203656 4.72105333 3.19900675 6.96484375 5.0234375 C8.99584427 6.26894346 8.99584427 6.26894346 11.3125 5.38671875 C12.199375 4.92910156 13.08625 4.47148437 14 4 C15.12535156 3.44183594 16.25070313 2.88367188 17.41015625 2.30859375 C19.24830927 1.37067964 21.08318913 0.42679572 22.91601562 -0.52148438 C29.1085332 -3.67464738 33.85903112 -4.19377617 40.6875 -4.1875 C41.49316406 -4.18741943 42.29882812 -4.18733887 43.12890625 -4.18725586 C49.33972918 -4.12758472 55.33217 -3.833915 61 -1 C61 -0.34 61 0.32 61 1 C47.60170295 11.28844087 28.20655724 19.11218218 11 17 C-3.71676539 14.99876621 -15.69508692 10.54058112 -28 2 C-28.763125 1.47664062 -29.52625 0.95328125 -30.3125 0.4140625 C-30.869375 -0.05257812 -31.42625 -0.51921875 -32 -1 C-32 -1.66 -32 -2.32 -32 -3 C-22.04628229 -6.3179059 -9.23854706 -4.51722772 0 0 Z " fill="#91D3F0" transform="translate(139,199)"/>
<path d="M0 0 C2.45811625 3.68717438 2.31118164 5.64345704 2 10 C1.01 11.485 1.01 11.485 0 13 C1.98 12.34 3.96 11.68 6 11 C6.28571429 18.42857143 6.28571429 18.42857143 4 22 C4.66 21.67 5.32 21.34 6 21 C6 24.3 6 27.6 6 31 C6.66 31 7.32 31 8 31 C8.33 34.3 8.66 37.6 9 41 C9.66 41 10.32 41 11 41 C12.49465401 43.24198101 13.76585044 45.48152598 14.875 47.9375 C16.52668979 50.96559794 18.76988581 53.3696089 21 56 C21.33 56.66 21.66 57.32 22 58 C22.928125 58.433125 22.928125 58.433125 23.875 58.875 C26.51689345 60.27364947 27.52212384 61.39612295 29 64 C29.6875 67.75 29.6875 67.75 30 71 C29.01 71.495 29.01 71.495 28 72 C28.33 72.66 28.66 73.32 29 74 C20.21563981 75.5971564 20.21563981 75.5971564 15.4375 73.25 C13 71 13 71 12 68 C10.00669158 66.65668346 8.00615134 65.32405988 6 64 C3.58363706 61.34200077 3 60.64705667 3 57 C2.21625 56.21625 1.4325 55.4325 0.625 54.625 C-1.94697245 52.05302755 -2.9796587 50.43205709 -4 47 C-4 46.34 -4 45.68 -4 45 C-4.474375 44.4225 -4.94875 43.845 -5.4375 43.25 C-7.33590599 40.51629538 -7.62814031 38.27236528 -8 35 C-7.01 35 -6.02 35 -5 35 C-5.639375 34.38125 -6.27875 33.7625 -6.9375 33.125 C-9.76956333 30.20711657 -9.99067486 29.5408583 -10.0625 25.375 C-10.041875 24.26125 -10.02125 23.1475 -10 22 C-7.03 23.98 -7.03 23.98 -4 26 C-4.433125 25.5153125 -4.86625 25.030625 -5.3125 24.53125 C-8.31728336 20.91438113 -10.42683307 18.33775317 -10.375 13.5 C-10.189375 11.7675 -10.189375 11.7675 -10 10 C-9.01 10 -8.02 10 -7 10 C-5.3125 12 -5.3125 12 -4 14 C-4.04640625 13.40832031 -4.0928125 12.81664062 -4.140625 12.20703125 C-4.33847489 7.87553196 -4.43654567 5.66846056 -2 1.9375 C-1.34 1.298125 -0.68 0.65875 0 0 Z " fill="#E2EEF4" transform="translate(45,149)"/>
<path d="M0 0 C0.99 0 1.98 0 3 0 C4.54890763 2.23042699 5.75831944 4.4648502 6.875 6.9375 C8.52668979 9.96559794 10.76988581 12.3696089 13 15 C13.33 15.66 13.66 16.32 14 17 C14.61875 17.28875 15.2375 17.5775 15.875 17.875 C18.51689345 19.27364947 19.52212384 20.39612295 21 23 C21.6875 26.75 21.6875 26.75 22 30 C21.01 30.495 21.01 30.495 20 31 C20.495 31.99 20.495 31.99 21 33 C12.21563981 34.5971564 12.21563981 34.5971564 7.4375 32.25 C5 30 5 30 4 27 C2.00669158 25.65668346 0.00615134 24.32405988 -2 23 C-4.41636294 20.34200077 -5 19.64705667 -5 16 C-5.78375 15.21625 -6.5675 14.4325 -7.375 13.625 C-9.9293268 11.0706732 -10.93478657 9.38931545 -12 6 C-9 5 -9 5 -6.9375 5.5625 C-5.9784375 5.7790625 -5.9784375 5.7790625 -5 6 C-2.96177976 4.08810394 -2.96177976 4.08810394 -1.5625 1.875 C-1.046875 1.25625 -0.53125 0.6375 0 0 Z " fill="#DEECF2" transform="translate(53,190)"/>
<path d="M0 0 C0 5.94 0 11.88 0 18 C-2.16949219 18.30744141 -2.16949219 18.30744141 -4.3828125 18.62109375 C-6.29688034 18.89319163 -8.21094254 19.16532913 -10.125 19.4375 C-11.07632813 19.57220703 -12.02765625 19.70691406 -13.0078125 19.84570312 C-13.9359375 19.97783203 -14.8640625 20.10996094 -15.8203125 20.24609375 C-16.66867676 20.36654053 -17.51704102 20.4869873 -18.39111328 20.61108398 C-21.26607956 21.03966543 -24.13281345 21.52213557 -27 22 C-27 16.06 -27 10.12 -27 4 C-17.49334832 0.61985718 -10.08305005 -0.40739596 0 0 Z " fill="#7DCBEF" transform="translate(127,142)"/>
<path d="M0 0 C11.00709397 -0.38285544 18.59082518 0.21484552 29 4 C29 9.28 29 14.56 29 20 C27.2675 19.690625 25.535 19.38125 23.75 19.0625 C22.77546875 18.88847656 21.8009375 18.71445313 20.796875 18.53515625 C18 18 18 18 16.09375 17.46875 C12.99954776 16.77601815 9.91109264 16.64238563 6.75 16.4375 C4.5225 16.293125 2.295 16.14875 0 16 C0 10.72 0 5.44 0 0 Z " fill="#7CCAEE" transform="translate(170,101)"/>
<path d="M0 0 C3.29148243 1.13499394 3.9959869 1.99283376 5.75 5.125 C6.1625 6.07375 6.575 7.0225 7 8 C10.96 5.525 10.96 5.525 15 3 C16 6 16 6 14.6875 9.0625 C13 12 13 12 11 14 C11.33 14.66 11.66 15.32 12 16 C11.07421875 17.875 11.07421875 17.875 9.6875 20 C9.23761719 20.70125 8.78773438 21.4025 8.32421875 22.125 C7 24 7 24 5 26 C4.7525 26.598125 4.505 27.19625 4.25 27.8125 C2.43844429 30.98272249 0.25328812 33.35921121 -3 35 C-5.90077034 35.12521311 -8.12837812 34.64363939 -11 34 C-8.56157111 30.77779039 -6.21488977 28.41116732 -3 26 C-3 25.34 -3 24.68 -3 24 C-3.66 24 -4.32 24 -5 24 C-6.45295405 14.98468271 -6.45295405 14.98468271 -4.5625 10.875 C-4.046875 10.25625 -3.53125 9.6375 -3 9 C-2.01 10.32 -1.02 11.64 0 13 C-0.08378906 12.31292969 -0.16757813 11.62585938 -0.25390625 10.91796875 C-0.35574219 10.01691406 -0.45757812 9.11585938 -0.5625 8.1875 C-0.71912109 6.84751953 -0.71912109 6.84751953 -0.87890625 5.48046875 C-1 3 -1 3 0 0 Z " fill="#DEEBF2" transform="translate(245,181)"/>
<path d="M0 0 C-0.33 0.66 -0.66 1.32 -1 2 C-2.81371094 2.05607422 -2.81371094 2.05607422 -4.6640625 2.11328125 C-22.71297877 2.78175963 -39.91576971 5.41687321 -54.25 17.3125 C-58.76856831 21.01226734 -64.28789122 22.24684788 -70 23 C-70.99 22.67 -71.98 22.34 -73 22 C-54.11701503 3.83499925 -26.52569582 -8.48822266 0 0 Z " fill="#7DCBEE" transform="translate(166,72)"/>
<path d="M0 0 C0.33 0 0.66 0 1 0 C1.02578125 0.71542969 1.0515625 1.43085937 1.078125 2.16796875 C1.47832564 9.19876631 2.7914294 15.32926713 5.0625 21.9921875 C9.79089317 37.16244891 9.22241992 59.55516017 2 74 C1.84777027 75.66565749 1.75082785 77.33656496 1.68359375 79.0078125 C1.64169922 79.99394531 1.59980469 80.98007813 1.55664062 81.99609375 C1.51732422 83.02863281 1.47800781 84.06117188 1.4375 85.125 C1.39431641 86.16527344 1.35113281 87.20554687 1.30664062 88.27734375 C1.2003712 90.85142528 1.09833417 93.42560508 1 96 C0.67 96 0.34 96 0 96 C0 64.32 0 32.64 0 0 Z " fill="#C5E6F4" transform="translate(229,105)"/>
<path d="M0 0 C4.46167469 1.38465766 6.41209762 2.75537068 9.625 6.125 C9.625 7.445 9.625 8.765 9.625 10.125 C8.635 10.125 7.645 10.125 6.625 10.125 C6.955 10.785 7.285 11.445 7.625 12.125 C9.275 11.465 10.925 10.805 12.625 10.125 C14.275 12.435 15.925 14.745 17.625 17.125 C13.625 17.125 13.625 17.125 10.625 15.125 C11.285 16.775 11.945 18.425 12.625 20.125 C9.625 20.125 9.625 20.125 6.625 18.125 C7.140625 18.723125 7.65625 19.32125 8.1875 19.9375 C8.661875 20.659375 9.13625 21.38125 9.625 22.125 C9.295 23.115 8.965 24.105 8.625 25.125 C4.62120626 22.15075322 1.62797061 19.07176137 -1.375 15.125 C-1.375 14.465 -1.375 13.805 -1.375 13.125 C-2.5815625 12.815625 -2.5815625 12.815625 -3.8125 12.5 C-6.375 11.125 -6.375 11.125 -7.4375 8.3125 C-7.375 5.125 -7.375 5.125 -5.875 2.1875 C-3.375 0.125 -3.375 0.125 0 0 Z " fill="#E6E6E0" transform="translate(224.375,56.875)"/>
<path d="M0 0 C1.9375 2.5625 1.9375 2.5625 3 5 C3.33 4.34 3.66 3.68 4 3 C4.33 3.99 4.66 4.98 5 6 C5.66 6 6.32 6 7 6 C7.33 4.68 7.66 3.36 8 2 C8.99 2.66 9.98 3.32 11 4 C10.67 5.32 10.34 6.64 10 8 C11.32 8.33 12.64 8.66 14 9 C14.33 7.35 14.66 5.7 15 4 C15.99 4.66 16.98 5.32 18 6 C17.60446947 7.6510403 17.18286103 9.2958515 16.75 10.9375 C16.51796875 11.85402344 16.2859375 12.77054688 16.046875 13.71484375 C15 16 15 16 12.890625 16.81640625 C11.95476562 16.90728516 11.95476562 16.90728516 11 17 C11.33 15.02 11.66 13.04 12 11 C10.68 11 9.36 11 8 11 C7.67 12.32 7.34 13.64 7 15 C5.68 14.34 4.36 13.68 3 13 C2.34 13.66 1.68 14.32 1 15 C-2.50940339 15.56909244 -3.73487502 15.18497091 -6.6875 13.125 C-8.15222392 11.77903748 -9.59340282 10.40659718 -11 9 C-10.81634623 5.63301423 -10.54238644 2.96424257 -8.875 0 C-5.67929294 -1.7043771 -3.37664267 -0.96475505 0 0 Z " fill="#F2F3F1" transform="translate(173,31)"/>
<path d="M0 0 C0.33 0 0.66 0 1 0 C1 19.14 1 38.28 1 58 C-4.40508745 52.59491255 -4.61729748 41.3789829 -5 34 C-5.04125 33.23558594 -5.0825 32.47117188 -5.125 31.68359375 C-5.40962096 20.88578592 -3.89007463 10.07882973 0 0 Z " fill="#C9EAF8" transform="translate(67,119)"/>
<path d="M0 0 C2.97 0.33 5.94 0.66 9 1 C9 1.33 9 1.66 9 2 C6.69 2 4.38 2 2 2 C2.33 33.02 2.66 64.04 3 96 C2.01 96 1.02 96 0 96 C0 64.32 0 32.64 0 0 Z " fill="#4B8EB2" transform="translate(69,105)"/>
<path d="M0 0 C0.92361328 -0.00386719 1.84722656 -0.00773438 2.79882812 -0.01171875 C3.69408203 -0.01042969 4.58933594 -0.00914062 5.51171875 -0.0078125 C6.71574341 -0.00612061 6.71574341 -0.00612061 7.9440918 -0.00439453 C10.47781865 0.13403194 12.83881836 0.57212076 15.3125 1.125 C15.3125 2.115 15.3125 3.105 15.3125 4.125 C14.63372803 4.14481934 13.95495605 4.16463867 13.25561523 4.18505859 C0.48077532 4.57646715 -12.0531049 5.11273342 -24.6875 7.125 C-26.33237104 7.34079941 -27.97806721 7.55054447 -29.625 7.75 C-31.1409375 7.935625 -31.1409375 7.935625 -32.6875 8.125 C-33.0175 6.805 -33.3475 5.485 -33.6875 4.125 C-31.35488977 3.64207679 -29.02150412 3.16360141 -26.6875 2.6875 C-25.71490234 2.48543945 -25.71490234 2.48543945 -24.72265625 2.27929688 C-16.4203246 0.59417015 -8.4603492 -0.03587427 0 0 Z " fill="#74C0E2" transform="translate(147.6875,7.875)"/>
<path d="M0 0 C3 0.5625 3 0.5625 5.4375 2.75 C7 5.5625 7 5.5625 6.9375 8.1875 C5.90737836 10.79714149 5.35055139 12.02248357 3 13.5625 C-0.66762206 14.10874158 -2.3258758 14.04148298 -5.375 11.875 C-7 9.5625 -7 9.5625 -7.5 7.0625 C-6.59983717 2.56168585 -4.4379939 0.83212386 0 0 Z " fill="#337DA5" transform="translate(76,55.4375)"/>
<path d="M0 0 C1.875 1.0625 1.875 1.0625 3 3 C3.4375 6.5 3.4375 6.5 3 10 C0.93174529 12.37466282 -0.43428235 12.88685647 -3.5 13.5 C-6 13 -6 13 -8.375 10.875 C-10 8 -10 8 -9.9375 4.8125 C-8.22154026 -0.33537922 -4.89798488 -0.51020676 0 0 Z " fill="#347EA6" transform="translate(93,46)"/>
<path d="M0 0 C2.8922973 1.27601351 4.88592593 2.69842593 7.125 4.9375 C7.77920677 8.20853386 7.44067651 9.45083204 5.625 12.25 C5.13 12.806875 4.635 13.36375 4.125 13.9375 C-0.46806496 12.4515084 -3.31069245 10.08735318 -6.875 6.9375 C-3.70965459 -0.12365515 -3.70965459 -0.12365515 0 0 Z " fill="#5795B5" transform="translate(63.875,67.0625)"/>
<path d="M0 0 C3.375 0.9375 3.375 0.9375 5.375 2.9375 C5.375 4.2575 5.375 5.5775 5.375 6.9375 C4.385 6.9375 3.395 6.9375 2.375 6.9375 C2.045 5.9475 1.715 4.9575 1.375 3.9375 C-0.275 4.2675 -1.925 4.5975 -3.625 4.9375 C-3.295 6.2575 -2.965 7.5775 -2.625 8.9375 C-1.305 8.2775 0.015 7.6175 1.375 6.9375 C2.365 8.2575 3.355 9.5775 4.375 10.9375 C2.725 12.5875 1.075 14.2375 -0.625 15.9375 C-0.955 14.9475 -1.285 13.9575 -1.625 12.9375 C-2.45 12.669375 -3.275 12.40125 -4.125 12.125 C-6.625 10.9375 -6.625 10.9375 -7.6875 8.125 C-7.625 4.9375 -7.625 4.9375 -6.125 2 C-3.625 -0.0625 -3.625 -0.0625 0 0 Z " fill="#3A82A9" transform="translate(224.625,57.0625)"/>
<path d="M0 0 C1.32 0.33 2.64 0.66 4 1 C4.33 2.65 4.66 4.3 5 6 C6.32 5.34 7.64 4.68 9 4 C9 7.63195496 8.04546845 8.74713911 6 11.6875 C5.443125 12.49574219 4.88625 13.30398437 4.3125 14.13671875 C3.879375 14.75160156 3.44625 15.36648437 3 16 C2.34 15.67 1.68 15.34 1 15 C0.40644386 12.35139573 0.25790731 9.70802678 0 7 C-1.32 8.65 -2.64 10.3 -4 12 C-4.66 11.67 -5.32 11.34 -6 11 C-4.54955729 6.89041233 -2.48889248 3.56741255 0 0 Z " fill="#327DA5" transform="translate(209,46)"/>
<path d="M0 0 C3 0.125 3 0.125 6 1 C7.95231826 3.37673528 8.04095569 4.56996525 7.75 7.625 C7 10 7 10 5 12 C1.9375 11.75 1.9375 11.75 -1 11 C-2.50662097 7.98675805 -2.17770373 5.31713623 -2 2 C-1.34 1.34 -0.68 0.68 0 0 Z " fill="#327DA4" transform="translate(175,244)"/>
<path d="M0 0 C0.66 0.33 1.32 0.66 2 1 C1.67 2.98 1.34 4.96 1 7 C2.98 7.99 4.96 8.98 7 10 C7 10.66 7 11.32 7 12 C5.1875 12.625 5.1875 12.625 3 13 C2.01 12.34 1.02 11.68 0 11 C0 12.32 0 13.64 0 15 C-0.99 15.33 -1.98 15.66 -3 16 C-4.65 12.04 -6.3 8.08 -8 4 C-6.68 4 -5.36 4 -4 4 C-1.74934898 2.08333079 -1.74934898 2.08333079 0 0 Z " fill="#3982A8" transform="translate(105,37)"/>
<path d="M0 0 C0 0.99 0 1.98 0 3 C-1.65 3 -3.3 3 -5 3 C-5 3.66 -5 4.32 -5 5 C-3.35 5 -1.7 5 0 5 C0 5.99 0 6.98 0 8 C-1.65 8 -3.3 8 -5 8 C-5 8.66 -5 9.32 -5 10 C-3.02 10 -1.04 10 1 10 C1 10.99 1 11.98 1 13 C-3.455 13.495 -3.455 13.495 -8 14 C-8.33 9.71 -8.66 5.42 -9 1 C-5.8035914 -0.06546953 -3.34252724 -0.07427838 0 0 Z " fill="#4086AC" transform="translate(141,29)"/>
<path d="M0 0 C0.99 0.66 1.98 1.32 3 2 C2.67 3.32 2.34 4.64 2 6 C3.32 6.33 4.64 6.66 6 7 C6.33 5.35 6.66 3.7 7 2 C7.99 2.66 8.98 3.32 10 4 C9.60446947 5.6510403 9.18286103 7.2958515 8.75 8.9375 C8.40195313 10.31228516 8.40195313 10.31228516 8.046875 11.71484375 C7 14 7 14 4.890625 14.81640625 C4.26671875 14.87699219 3.6428125 14.93757813 3 15 C3.33 13.02 3.66 11.04 4 9 C2.68 9 1.36 9 0 9 C-0.33 10.32 -0.66 11.64 -1 13 C-1.99 12.67 -2.98 12.34 -4 12 C-3.52494322 10.18641846 -3.04483958 8.37415821 -2.5625 6.5625 C-2.29566406 5.55316406 -2.02882812 4.54382812 -1.75390625 3.50390625 C-1 1 -1 1 0 0 Z " fill="#3982A9" transform="translate(181,33)"/>
<path d="M0 0 C1.4375 2.0625 1.4375 2.0625 2 4 C-1.27275026 4 -3.846632 3.70074844 -7 3 C-7 4.98 -7 6.96 -7 9 C-6.05125 8.814375 -5.1025 8.62875 -4.125 8.4375 C-1 8 -1 8 1 9 C0.67 9.99 0.34 10.98 0 12 C-7.3028169 12.35915493 -7.3028169 12.35915493 -10.0625 10.9375 C-11.60126391 7.75738793 -10.83437295 5.33749179 -10 2 C-7.60892062 -2.25080778 -4.24049549 -1.15649877 0 0 Z " fill="#3881A8" transform="translate(173,31)"/>
<path d="M0 0 C3 1 3 1 4.1875 3.0625 C4.455625 3.701875 4.72375 4.34125 5 5 C5.33 4.34 5.66 3.68 6 3 C6.99 3.33 7.98 3.66 9 4 C7.68 7.63 6.36 11.26 5 15 C4.01 14.67 3.02 14.34 2 14 C1.67 12.35 1.34 10.7 1 9 C0.01 10.485 0.01 10.485 -1 12 C-1.99 11.67 -2.98 11.34 -4 11 C-3.52269162 9.5410574 -3.04308958 8.08286504 -2.5625 6.625 C-2.29566406 5.81289062 -2.02882813 5.00078125 -1.75390625 4.1640625 C-1 2 -1 2 0 0 Z " fill="#3D84AA" transform="translate(105,238)"/>
<path d="M0 0 C1.32 0.33 2.64 0.66 4 1 C3.67 5.29 3.34 9.58 3 14 C1.68 13.67 0.36 13.34 -1 13 C-1.33 12.34 -1.66 11.68 -2 11 C-5.02934491 10.34227572 -5.02934491 10.34227572 -8 10 C-7.04367001 8.70684939 -6.08486149 7.41553147 -5.125 6.125 C-4.59132812 5.40570313 -4.05765625 4.68640625 -3.5078125 3.9453125 C-2 2 -2 2 0 0 Z " fill="#4E90B2" transform="translate(198,40)"/>
<path d="M0 0 C2.5 2.3125 2.5 2.3125 5 5 C5 5.99 5 6.98 5 8 C3 7 1 6 -1 5 C-0.34 6.65 0.32 8.3 1 10 C-2 10 -2 10 -5 8 C-4.484375 8.598125 -3.96875 9.19625 -3.4375 9.8125 C-2.963125 10.534375 -2.48875 11.25625 -2 12 C-2.33 12.99 -2.66 13.98 -3 15 C-7.875 11.375 -7.875 11.375 -9 8 C-6.03 5.36 -3.06 2.72 0 0 Z " fill="#347FA7" transform="translate(236,67)"/>
<path d="M0 0 C2.00720923 0.28674418 4.0085944 0.61866701 6 1 C5.67 1.99 5.34 2.98 5 4 C3.68 3.67 2.36 3.34 1 3 C1 3.66 1 4.32 1 5 C3.31 5.33 5.62 5.66 8 6 C8.125 8.375 8.125 8.375 8 11 C6 13 6 13 2.875 13.125 C1.92625 13.08375 0.9775 13.0425 0 13 C0 12.01 0 11.02 0 10 C0.66 9.67 1.32 9.34 2 9 C2.99 9.33 3.98 9.66 5 10 C5 9.34 5 8.68 5 8 C4.21625 8.04125 3.4325 8.0825 2.625 8.125 C0 8 0 8 -2 6 C-1.44444444 1.44444444 -1.44444444 1.44444444 0 0 Z " fill="#347EA6" transform="translate(115,33)"/>
<path d="M0 0 C0.5775 0.37125 1.155 0.7425 1.75 1.125 C4 2.29166667 4 2.29166667 6.25 1.125 C6.8275 0.75375 7.405 0.3825 8 0 C8.33 0.66 8.66 1.32 9 2 C8.649375 2.78375 8.29875 3.5675 7.9375 4.375 C6.69699534 6.95357601 6.69699534 6.95357601 7.875 9.3125 C8.431875 10.1478125 8.431875 10.1478125 9 11 C8.01 11.66 7.02 12.32 6 13 C5.34 12.01 4.68 11.02 4 10 C2.68 10.99 1.36 11.98 0 13 C-1.12122873 9.63631382 -0.76972616 7.42100517 0 4 C0 2.68 0 1.36 0 0 Z " fill="#347FA6" transform="translate(148,29)"/>
<path d="M0 0 C1.875 1.375 1.875 1.375 3 3 C3 3.66 3 4.32 3 5 C0.36 4.67 -2.28 4.34 -5 4 C-5 5.32 -5 6.64 -5 8 C-3.35 8 -1.7 8 0 8 C0 9.32 0 10.64 0 12 C-5.4 12.36 -5.4 12.36 -7.875 10.875 C-9.52854531 8.11909116 -9.39365568 6.14924548 -9 3 C-6.79086995 -0.68188342 -4.01844539 -0.50230567 0 0 Z " fill="#367FA6" transform="translate(127,245)"/>
<path d="M0 0 C7.15406617 -0.74521523 11.30223306 0.65292985 17 5 C13.41390244 6.92387208 11.11755472 7.49410657 7 7 C1.29230769 3.87692308 1.29230769 3.87692308 0 0 Z " fill="#3B82A8" transform="translate(57,217)"/>
<path d="M0 0 C-4.4 5.97142857 -4.4 5.97142857 -8 7 C-14.44444444 6.55555556 -14.44444444 6.55555556 -17 4 C-11.20200116 -0.0333905 -6.98629919 -0.50604984 0 0 Z " fill="#357FA6" transform="translate(241,217)"/>
<path d="M0 0 C1.8871875 0.061875 1.8871875 0.061875 3.8125 0.125 C2.30677326 3.95775898 0.36502761 6.03982075 -3.1875 8.125 C-6.01891109 8.16177157 -8.38444407 7.69511307 -11.1875 7.125 C-5.60963805 -0.18392256 -5.60963805 -0.18392256 0 0 Z " fill="#3780A7" transform="translate(245.1875,207.875)"/>
<path d="M0 0 C6.86892178 -0.7230444 6.86892178 -0.7230444 10.08984375 1.3359375 C11.80497879 2.83010422 13.43160073 4.35318077 15 6 C13 8 13 8 10.1875 8.4375 C5.96851664 7.85842385 4.68777593 6.21039902 2 3 C1.34 2.01 0.68 1.02 0 0 Z " fill="#3780A7" transform="translate(48,208)"/>
<path d="M0 0 C4.45556408 1.40032014 6.99953665 3.43188142 10 7 C11.3125 10.3125 11.3125 10.3125 12 13 C8.08463712 12.17175016 5.56332042 11.53367197 2.625 8.75 C0.85653197 5.75720795 0.32000357 3.44003835 0 0 Z " fill="#3880A7" transform="translate(37,184)"/>
<path d="M0 0 C4.70938245 2.72097653 7.07585177 4.86893806 9 10 C9 11.32 9 12.64 9 14 C5.52827945 13.1513572 3.48309162 12.56360689 1.125 9.8125 C-0.24361955 6.39095112 -0.21485027 3.6524546 0 0 Z " fill="#3881A7" transform="translate(35,171)"/>
<path d="M0 0 C0.33 0 0.66 0 1 0 C1.91731708 9.69977879 1.91731708 9.69977879 -0.30078125 12.84375 C-4.14516715 16 -4.14516715 16 -6 16 C-6.4226988 9.87086741 -6.00963916 6.95308367 -2 2 C-1.34 1.34 -0.68 0.68 0 0 Z " fill="#3A81A8" transform="translate(262,158)"/>
<path d="M0 0 C2.31 0.33 4.62 0.66 7 1 C7 1.66 7 2.32 7 3 C5.68 3 4.36 3 3 3 C3 3.66 3 4.32 3 5 C4.32 5 5.64 5 7 5 C7 5.99 7 6.98 7 8 C5.35 8 3.7 8 2 8 C2 8.66 2 9.32 2 10 C3.65 10 5.3 10 7 10 C7 10.66 7 11.32 7 12 C4.36 12 1.72 12 -1 12 C-1.08159574 7.83861737 -0.98248524 4.0527516 0 0 Z " fill="#4589AD" transform="translate(136,247)"/>
<path d="M0 0 C0.93423645 3.01031744 1.04449911 3.86650268 0 7 C0.99 6.67 1.98 6.34 3 6 C2.67 7.32 2.34 8.64 2 10 C-0.31 10.66 -2.62 11.32 -5 12 C-5.36923077 6.58461538 -5.36923077 6.58461538 -3.5 3.625 C-3.005 3.08875 -2.51 2.5525 -2 2 C-2.99 2 -3.98 2 -5 2 C-5 2.66 -5 3.32 -5 4 C-5.99 4 -6.98 4 -8 4 C-7.625 2.0625 -7.625 2.0625 -7 0 C-4.3333581 -1.33332095 -2.83319697 -0.67102033 0 0 Z " fill="#327DA4" transform="translate(195,240)"/>
<path d="M0 0 C5.93909701 5.78681247 5.93909701 5.78681247 6.09765625 8.9453125 C6.06510417 10.96354167 6.03255208 12.98177083 6 15 C2.61768919 13.60042311 0.72071358 12.26935579 -1 9 C-1.30105814 6.24209241 -1.18324373 3.79446682 -1 1 C-0.67 0.67 -0.34 0.34 0 0 Z " fill="#357EA6" transform="translate(36,158)"/>
<path d="M0 0 C1 3 1 3 -0.125 6 C-2.15682507 9.25092012 -3.48026194 10.54059641 -7 12 C-9.16015625 11.56640625 -9.16015625 11.56640625 -11 11 C-8.108948 5.61445624 -5.98069058 2.22537324 0 0 Z " fill="#347EA5" transform="translate(260,184)"/>
<path d="M0 0 C0.33 0 0.66 0 1 0 C1.29025698 4.93436874 1.29261483 8.15861604 -2 12 C-5.1875 13.3125 -5.1875 13.3125 -8 14 C-7.74473736 9.66053508 -7.45510245 7.52511821 -4.5625 4.1875 C-3.716875 3.465625 -2.87125 2.74375 -2 2 C-1.34 1.34 -0.68 0.68 0 0 Z " fill="#347EA5" transform="translate(262,171)"/>
<path d="M0 0 C0.88171875 0.10828125 1.7634375 0.2165625 2.671875 0.328125 C5.17890778 0.69539732 7.65678163 1.11158238 10.125 1.6875 C9.795 2.6775 9.465 3.6675 9.125 4.6875 C4.29613701 5.76308786 0.08464459 5.50424203 -4.75 4.75 C-5.78253906 4.60014648 -5.78253906 4.60014648 -6.8359375 4.44726562 C-8.51682997 4.20213547 -10.19610487 3.94595587 -11.875 3.6875 C-10.9778125 3.254375 -10.9778125 3.254375 -10.0625 2.8125 C-3.68895349 -0.46532392 -3.68895349 -0.46532392 0 0 Z " fill="#3C84AA" transform="translate(171.875,13.3125)"/>
<path d="M0 0 C2.97 0.495 2.97 0.495 6 1 C6.6875 2.8125 6.6875 2.8125 7 5 C5.5625 6.75 5.5625 6.75 4 8 C4.99 8.33 5.98 8.66 7 9 C7 9.66 7 10.32 7 11 C4.36 11.33 1.72 11.66 -1 12 C-1.25 9.6875 -1.25 9.6875 -1 7 C1 5.1875 1 5.1875 3 4 C1.35 4 -0.3 4 -2 4 C-1.34 2.68 -0.68 1.36 0 0 Z " fill="#327DA4" transform="translate(160,247)"/>
<path d="M0 0 C-0.8309193 3.11594739 -1.51006642 5.45562935 -3.6875 7.875 C-6.85844867 9.41762368 -9.52529869 9.20046354 -13 9 C-9.51272993 2.85576226 -7.44827579 0 0 0 Z " fill="#347DA5" transform="translate(256,197)"/>
<path d="M0 0 C0.66 0 1.32 0 2 0 C2 8.58 2 17.16 2 26 C1.01 26.33 0.02 26.66 -1 27 C-1.02886537 22.68751391 -1.04675255 18.37505238 -1.0625 14.0625 C-1.07087891 12.83080078 -1.07925781 11.59910156 -1.08789062 10.33007812 C-1.09111328 9.16025391 -1.09433594 7.99042969 -1.09765625 6.78515625 C-1.10289307 5.70113525 -1.10812988 4.61711426 -1.11352539 3.50024414 C-1 1 -1 1 0 0 Z " fill="#83D3F6" transform="translate(11,134)"/>
<path d="M0 0 C0 0.99 0 1.98 0 3 C-0.66 3.66 -1.32 4.32 -2 5 C-0.35 5 1.3 5 3 5 C3.66 6.32 4.32 7.64 5 9 C3.25 11.0625 3.25 11.0625 1 13 C-1.25 12.75 -1.25 12.75 -3 12 C-2 10 -2 10 1 9 C1.33 8.34 1.66 7.68 2 7 C0.02 7.66 -1.96 8.32 -4 9 C-6 6 -6 6 -5.8125 3.9375 C-4.64210807 1.14656539 -3.05108191 0 0 0 Z " fill="#307BA4" transform="translate(207,231)"/>
<path d="M0 0 C3.516266 0.07032532 6.09462773 0.20068001 8.80078125 2.58984375 C13 7.49060263 13 7.49060263 13 9 C8.6057696 9.4308069 6.67140255 9.52544547 3.125 6.75 C1.23888646 4.30914718 0.33405533 3.00649796 0 0 Z " fill="#317CA4" transform="translate(42,197)"/>
<path d="M0 0 C2.5625 2 2.5625 2 5 5 C5.26283451 7.98831414 4.73402248 10.01497525 4 13 C3.34 13.66 2.68 14.32 2 15 C-1.95611249 10.20471213 -1.95611249 10.20471213 -2.078125 6.85546875 C-1.41106263 1.41106263 -1.41106263 1.41106263 0 0 Z " fill="#3981A8" transform="translate(253,149)"/>
<path d="M0 0 C2.45160268 2.45160268 2.61427733 3.5856401 3 7 C2.76741479 9.28040444 2.4504381 11.55333106 2.0625 13.8125 C1.86785156 14.97394531 1.67320313 16.13539063 1.47265625 17.33203125 C1.23869141 18.65267578 1.23869141 18.65267578 1 20 C-0.32 20.33 -1.64 20.66 -3 21 C-2.53752467 13.80729161 -1.74922933 6.9969173 0 0 Z " fill="#77C3E5" transform="translate(13,114)"/>
<path d="M0 0 C0.33 0 0.66 0 1 0 C1.48908297 7.33624454 1.48908297 7.33624454 -0.75 10.375 C-2.78355851 11.84368115 -4.69734349 13.01314721 -7 14 C-6.63091483 6.74132492 -6.63091483 6.74132492 -3.5 3.0625 C-2.675 2.381875 -1.85 1.70125 -1 1 C-0.67 0.67 -0.34 0.34 0 0 Z " fill="#3E84AA" transform="translate(230,206)"/>
<path d="M0 0 C0.66 0 1.32 0 2 0 C3.55518007 6.9384957 3.55518007 6.9384957 2.0234375 9.8671875 C0.6875 11.5 0.6875 11.5 -2 14 C-2.66 14 -3.32 14 -4 14 C-4.41733821 7.94859592 -4.10415132 4.82841331 0 0 Z " fill="#3D84A9" transform="translate(236,199)"/>
<path d="M0 0 C3.87187551 1.25574341 6.06837517 2.34007927 8 6 C8.1875 9.25 8.1875 9.25 8 12 C5 12 5 12 2.3125 9.375 C0.28790176 6.82909802 0.0033118 6.03576747 -0.3125 2.625 C-0.209375 1.75875 -0.10625 0.8925 0 0 Z " fill="#3C83A9" transform="translate(247,160)"/>
<path d="M0 0 C1.65 0 3.3 0 5 0 C5.33 1.65 5.66 3.3 6 5 C5.34 5 4.68 5 4 5 C4 5.33 4 5.66 4 6 C3.67619874 7.33568021 3.34342449 8.66923011 3 10 C0.625 10.625 0.625 10.625 -2 11 C-2.66 10.34 -3.32 9.68 -4 9 C-4 7.68 -4 6.36 -4 5 C-2 5 -2 5 -0.375 6.5 C0.07875 6.995 0.5325 7.49 1 8 C0.34 7.01 -0.32 6.02 -1 5 C-0.625 2.3125 -0.625 2.3125 0 0 Z " fill="#337DA5" transform="translate(84,228)"/>
<path d="M0 0 C0.66 0 1.32 0 2 0 C2 0.66 2 1.32 2 2 C2.99 2.33 3.98 2.66 5 3 C6.11445498 5.22890995 6.16480286 6.53055106 6.1875 9 C6.20167969 9.70125 6.21585938 10.4025 6.23046875 11.125 C6 13 6 13 4 15 C-0.11888494 9.98010898 -0.51211281 6.40141012 0 0 Z " fill="#3981A8" transform="translate(247,170)"/>
<path d="M0 0 C3.38555647 1.40091992 5.18190974 2.79669811 7 6 C7.6875 9.75 7.6875 9.75 8 13 C1.78331402 10.81575898 1.78331402 10.81575898 0 8 C-0.24759992 5.28178349 -0.13477933 2.74051312 0 0 Z " fill="#327DA4" transform="translate(67,207)"/>
<path d="M0 0 C6.16273338 0.46823002 10.62090786 1.87878164 16.0625 4.75 C16.73087891 5.08515625 17.39925781 5.4203125 18.08789062 5.765625 C22.70965535 8.13714276 26.83299365 10.90048423 31 14 C27.49090634 14 26.76582295 13.32040732 23.9375 11.375 C16.56743307 6.76184335 8.25333775 4.53533905 0 2 C0 1.34 0 0.68 0 0 Z " fill="#7BCAEE" transform="translate(167,73)"/>
<path d="M0 0 C2.5 1.375 2.5 1.375 5 4 C5.44908891 7.37080851 5.29036649 10.61884349 5 14 C0.125 11.25 0.125 11.25 -1 9 C-0.91348369 7.45386986 -0.75997364 5.91090613 -0.5625 4.375 C-0.46066406 3.55773437 -0.35882813 2.74046875 -0.25390625 1.8984375 C-0.17011719 1.27195313 -0.08632813 0.64546875 0 0 Z " fill="#367FA6" transform="translate(60,199)"/>
<path d="M0 0 C3.875 1.75 3.875 1.75 5 4 C5.30343947 7.48955396 5.39470082 9.37505704 3.5 12.375 C3.005 12.91125 2.51 13.4475 2 14 C0.05081856 11.58301501 -1.00815254 9.81253599 -0.9765625 6.6640625 C-0.71537901 4.42635527 -0.40084514 2.21672195 0 0 Z " fill="#357EA6" transform="translate(245,181)"/>
<path d="M0 0 C2.10306598 3.41748222 2.40603518 6.02085525 2 10 C0.5 12.875 0.5 12.875 -1 15 C-3.16345727 12.65625462 -3.96214706 11.25415543 -4.4375 8.0625 C-3.90475283 4.33326978 -2.54808744 2.70734291 0 0 Z " fill="#347EA5" transform="translate(52,180)"/>
<path d="M0 0 C0.99 0.33 1.98 0.66 3 1 C3.99 0.67 4.98 0.34 6 0 C6 0.66 6 1.32 6 2 C5.38125 2.556875 4.7625 3.11375 4.125 3.6875 C1.46009841 6.58753997 0.87514289 9.20771415 0 13 C1.98 12.34 3.96 11.68 6 11 C6 11.66 6 12.32 6 13 C4.2421875 13.9765625 2.484375 14.953125 0.7265625 15.9296875 C-1.1612614 17.00897274 -1.1612614 17.00897274 -3 19 C-2.69277348 16.02020106 -2.37948528 13.04126241 -2.0625 10.0625 C-1.97548828 9.21236328 -1.88847656 8.36222656 -1.79882812 7.48632812 C-1.71181641 6.67744141 -1.62480469 5.86855469 -1.53515625 5.03515625 C-1.456604 4.2862915 -1.37805176 3.53742676 -1.29711914 2.76586914 C-1 1 -1 1 0 0 Z " fill="#E1EEF3" transform="translate(254,172)"/>
<path d="M0 0 C2.47342266 3.71013399 2.38503486 5.61060262 2 10 C0.625 12.4375 0.625 12.4375 -1 14 C-1.66 14 -2.32 14 -3 14 C-4.61050328 5.96498906 -4.61050328 5.96498906 -2.0625 1.9375 C-1.381875 1.298125 -0.70125 0.65875 0 0 Z " fill="#357EA6" transform="translate(45,149)"/>
<path d="M0 0 C2.2435065 2.17552145 3.93436198 3.81625226 4.11328125 7.04296875 C3.73438308 10.45305228 3.469815 12.530185 1 15 C-1.47114386 12.42589181 -1.98892624 11.12402615 -2.3125 7.5 C-2.03133261 4.3509252 -1.67527688 2.61762012 0 0 Z " fill="#357FA6" transform="translate(55,190)"/>
<path d="M0 0 C0.76681614 8.77578475 0.76681614 8.77578475 -1.11328125 11.77734375 C-2.5 13.125 -2.5 13.125 -5 15 C-6.21260877 11.36217368 -6.39544552 8.82264001 -6 5 C-1.85106383 0 -1.85106383 0 0 0 Z " fill="#327CA4" transform="translate(51,170)"/>
<path d="M0 0 C0.32150943 4.09924523 0.41384837 6.34355086 -1.8125 9.875 C-4 12 -4 12 -7 13 C-7.72087674 5.9113787 -7.72087674 5.9113787 -5.69921875 3.35546875 C-1.64751441 0 -1.64751441 0 0 0 Z " fill="#327CA4" transform="translate(51,160)"/>
<path d="M0 0 C2.19007834 2.37258487 2.965678 3.76464913 3.4375 7 C2.90883564 10.62512706 1.79352638 11.73025981 -1 14 C-2.90185343 11.20315672 -2.99271185 9.89614391 -2.75 6.4375 C-2 3 -2 3 0 0 Z " fill="#337DA5" transform="translate(242,190)"/>
<path d="M0 0 C1.9375 0.5625 1.9375 0.5625 4 2 C5.125 5.3125 5.125 5.3125 5 9 C2.375 12 2.375 12 -1 14 C-3.8125 13.9375 -3.8125 13.9375 -6 13 C-6.33 12.34 -6.66 11.68 -7 11 C-6.05125 10.71125 -5.1025 10.4225 -4.125 10.125 C-0.94788422 9.23174891 -0.94788422 9.23174891 1 7 C0.67673447 3.40320934 0.67673447 3.40320934 0 0 Z " fill="#E2E1D9" transform="translate(81,58)"/>
<path d="M0 0 C1.32 0 2.64 0 4 0 C2.80805531 5.52628901 1.4008703 8.17819158 -3 12 C-3.99 11.67 -4.98 11.34 -6 11 C-4.54780852 6.88545746 -2.71245508 3.4304579 0 0 Z " fill="#E2E0D8" transform="translate(218,52)"/>
<path d="M0 0 C1.32 0 2.64 0 4 0 C3.93976735 1.60520004 3.85091401 3.20934327 3.75 4.8125 C3.70359375 5.70582031 3.6571875 6.59914063 3.609375 7.51953125 C3 10 3 10 1.140625 11.82421875 C-1 13 -1 13 -4 13 C-3.52140759 11.39566191 -3.04210442 9.79153584 -2.5625 8.1875 C-2.29566406 7.29417969 -2.02882812 6.40085937 -1.75390625 5.48046875 C-1.19612127 3.64526945 -0.60655425 1.81966274 0 0 Z " fill="#DEDED8" transform="translate(190,37)"/>
<path d="M0 0 C0.33 0 0.66 0 1 0 C1 7.92 1 15.84 1 24 C0.01 23.34 -0.98 22.68 -2 22 C-2.328125 18.77734375 -2.328125 18.77734375 -2.25 14.9375 C-2.23453125 13.66777344 -2.2190625 12.39804688 -2.203125 11.08984375 C-2 8 -2 8 -1 7 C-0.63239269 4.67182036 -0.29758419 2.3381615 0 0 Z " fill="#3079A1" transform="translate(284,136)"/>
<path d="M0 0 C0.99 0.33 1.98 0.66 3 1 C2.01 1.495 2.01 1.495 1 2 C1 4.97 1 7.94 1 11 C2.20398438 10.90460938 3.40796875 10.80921875 4.6484375 10.7109375 C6.22391877 10.59840312 7.79944195 10.48645427 9.375 10.375 C10.56609375 10.27832031 10.56609375 10.27832031 11.78125 10.1796875 C13.85028224 10.03941413 15.92625536 10.01241763 18 10 C18.66 10.66 19.32 11.32 20 12 C19.34 12 18.68 12 18 12 C18 15.96 18 19.92 18 24 C17.67 24 17.34 24 17 24 C17 20.04 17 16.08 17 12 C11.72 12 6.44 12 1 12 C0.67 12.66 0.34 13.32 0 14 C0 9.38 0 4.76 0 0 Z " fill="#163A4C" transform="translate(67,262)"/>
<path d="M0 0 C1.9375 0.6875 1.9375 0.6875 4 2 C4.75 4.625 4.75 4.625 5 7 C4.01 7.33 3.02 7.66 2 8 C1.26676204 10.01508358 1.26676204 10.01508358 1 12 C0.01 11.67 -0.98 11.34 -2 11 C-2.144375 10.236875 -2.28875 9.47375 -2.4375 8.6875 C-2.9632594 5.91827092 -2.9632594 5.91827092 -4 3 C-1.525 3.99 -1.525 3.99 1 5 C0.67 3.35 0.34 1.7 0 0 Z " fill="#E9E7E1" transform="translate(235,72)"/>
<path d="M0 0 C2 2 2 2 2 6 C1.01 6 0.02 6 -1 6 C-1.33 5.01 -1.66 4.02 -2 3 C-4.43717258 3.27034634 -4.43717258 3.27034634 -7 4 C-7.66 4.99 -8.32 5.98 -9 7 C-10.31236443 2.5856833 -10.31236443 2.5856833 -9 0.125 C-5.84077063 -1.65206652 -3.42024943 -0.80842259 0 0 Z " fill="#357FA7" transform="translate(228,58)"/>
<path d="M0 0 C2.875 0.25 2.875 0.25 6 1 C7.4375 2.8125 7.4375 2.8125 8 5 C7.625 7.25 7.625 7.25 7 9 C7 8.01 7 7.02 7 6 C6.34 6 5.68 6 5 6 C4.67 6.99 4.34 7.98 4 9 C3.01 8.67 2.02 8.34 1 8 C0.67 5.36 0.34 2.72 0 0 Z " fill="#3E85AA" transform="translate(175,244)"/>
<path d="M0 0 C0.33 0 0.66 0 1 0 C1.33 1.65 1.66 3.3 2 5 C3.32 4.34 4.64 3.68 6 3 C6 6.61137513 5.07469918 7.74732191 3.0625 10.6875 C2.51722656 11.49574219 1.97195312 12.30398437 1.41015625 13.13671875 C0.94480469 13.75160156 0.47945312 14.36648437 0 15 C-0.33 15 -0.66 15 -1 15 C-0.67 10.05 -0.34 5.1 0 0 Z " fill="#3C84AB" transform="translate(212,47)"/>
<path d="M0 0 C1.65 0 3.3 0 5 0 C3.9318153 5.11365014 2.76892524 10.07227969 1 15 C0.67 15 0.34 15 0 15 C0 10.05 0 5.1 0 0 Z " fill="#1C4358" transform="translate(290,189)"/>
<path d="M0 0 C0 5.28 0 10.56 0 16 C-0.99 16 -1.98 16 -3 16 C-3 11.05 -3 6.1 -3 1 C-1 0 -1 0 0 0 Z " fill="#83D2F5" transform="translate(289,141)"/>
<path d="M0 0 C1.32 0.33 2.64 0.66 4 1 C3.51780822 6.42465753 3.51780822 6.42465753 1.3125 8.875 C-1.59577155 10.28983481 -3.80615246 10.21776233 -7 10 C-6.01 9.67 -5.02 9.34 -4 9 C-4 8.34 -4 7.68 -4 7 C-3.01 6.34 -2.02 5.68 -1 5 C-0.27034634 2.43717258 -0.27034634 2.43717258 0 0 Z " fill="#DCDCD4" transform="translate(96,51)"/>
<path d="M0 0 C0.99 0.33 1.98 0.66 3 1 C3.3125 3.6875 3.3125 3.6875 3 7 C0.5 9.875 0.5 9.875 -2 12 C-2.99 11.01 -3.98 10.02 -5 9 C-4.34 9 -3.68 9 -3 9 C-2.01 6.03 -1.02 3.06 0 0 Z " fill="#DCDDD6" transform="translate(71,72)"/>
<path d="M0 0 C1.67542976 0.28604898 3.34385343 0.61781233 5 1 C5 2.65 5 4.3 5 6 C2.625 6.625 2.625 6.625 0 7 C-0.66 6.34 -1.32 5.68 -2 5 C-1.46428571 1.46428571 -1.46428571 1.46428571 0 0 Z " fill="#E5E8E5" transform="translate(74,59)"/>
<path d="M0 0 C1.67542976 0.28604898 3.34385343 0.61781233 5 1 C5 2.65 5 4.3 5 6 C2.625 6.625 2.625 6.625 0 7 C-0.66 6.34 -1.32 5.68 -2 5 C-1.46428571 1.46428571 -1.46428571 1.46428571 0 0 Z " fill="#E6E9E6" transform="translate(88,49)"/>
<path d="M0 0 C0.66 0 1.32 0 2 0 C1.9131724 2.12577907 1.8050049 4.25069581 1.6875 6.375 C1.62949219 7.55835938 1.57148438 8.74171875 1.51171875 9.9609375 C1.34285156 10.96382812 1.17398438 11.96671875 1 13 C0.01 13.66 -0.98 14.32 -2 15 C-2 14.34 -2 13.68 -2 13 C-2.66 12.67 -3.32 12.34 -4 12 C-3.34 12 -2.68 12 -2 12 C-2.02320313 11.38511719 -2.04640625 10.77023438 -2.0703125 10.13671875 C-2.08835938 9.32847656 -2.10640625 8.52023438 -2.125 7.6875 C-2.14820313 6.88699219 -2.17140625 6.08648437 -2.1953125 5.26171875 C-2 3 -2 3 0 0 Z " fill="#E6E3DB" transform="translate(203,42)"/>
<path d="M0 0 C1.32 0.33 2.64 0.66 4 1 C3.62875 1.9075 3.2575 2.815 2.875 3.75 C1.69640701 6.88097015 1.69640701 6.88097015 2.875 9.375 C3.24625 9.91125 3.6175 10.4475 4 11 C2.02 11.99 2.02 11.99 0 13 C0.04125 12.278125 0.0825 11.55625 0.125 10.8125 C0.16369789 7.95575815 0.16369789 7.95575815 -1.125 5.375 C-1.41375 4.59125 -1.7025 3.8075 -2 3 C-1.34 2.01 -0.68 1.02 0 0 Z " fill="#E4E0D6" transform="translate(156,31)"/>
<path d="M0 0 C1.65 0 3.3 0 5 0 C5.33 0.66 5.66 1.32 6 2 C4.75 5.5625 4.75 5.5625 3 9 C2.01 9.33 1.02 9.66 0 10 C0 6.7 0 3.4 0 0 Z " fill="#1B4257" transform="translate(17,87)"/>
<path d="M0 0 C0.99 0.66 1.98 1.32 3 2 C2.49396008 4.16874252 2.00016187 5.99967627 1 8 C-2.65316671 6.75023244 -3.78065836 6.32901247 -6 3 C-5.195625 2.690625 -4.39125 2.38125 -3.5625 2.0625 C-1.10919595 1.23664655 -1.10919595 1.23664655 0 0 Z " fill="#317DA5" transform="translate(67,73)"/>
<path d="M0 0 C2.4375 0.1875 2.4375 0.1875 3.4375 1.1875 C3.47813832 2.85367115 3.480221 4.52138095 3.4375 6.1875 C2.5403125 5.4140625 2.5403125 5.4140625 1.625 4.625 C0.903125 4.150625 0.18125 3.67625 -0.5625 3.1875 C-3.68035113 3.83394661 -3.68035113 3.83394661 -4.5625 6.1875 C-5.8825 5.5275 -7.2025 4.8675 -8.5625 4.1875 C-8.2325 3.1975 -7.9025 2.2075 -7.5625 1.1875 C-6.5725 1.5175 -5.5825 1.8475 -4.5625 2.1875 C-2.5625 0.1875 -2.5625 0.1875 0 0 Z " fill="#2E7AA2" transform="translate(67.5625,70.8125)"/>
<path d="M0 0 C2.625 0.9375 2.625 0.9375 5 2 C4 4 4 4 2.07421875 4.78125 C1.28660156 5.0184375 0.49898437 5.255625 -0.3125 5.5 C-3.38366227 6.43403943 -6.16201661 7.49333605 -9 9 C-9 8.01 -9 7.02 -9 6 C-7.5459375 5.5978125 -7.5459375 5.5978125 -6.0625 5.1875 C-4.5465625 4.5996875 -4.5465625 4.5996875 -3 4 C-2.67 3.01 -2.34 2.02 -2 1 C-1.34 0.67 -0.68 0.34 0 0 Z " fill="#E1EEF3" transform="translate(232,213)"/>
<path d="M0 0 C2.75 -0.3125 2.75 -0.3125 6 0 C8.4375 2.1875 8.4375 2.1875 10 5 C9.75 7.8125 9.75 7.8125 9 10 C8.67 9.34 8.34 8.68 8 8 C7.34 8 6.68 8 6 8 C5.67 6.02 5.34 4.04 5 2 C3.35 1.67 1.7 1.34 0 1 C0 0.67 0 0.34 0 0 Z " fill="#3D85AA" transform="translate(73,56)"/>
<path d="M0 0 C0.99 0.33 1.98 0.66 3 1 C3.125 3.375 3.125 3.375 3 6 C1 8 1 8 -2.625 8.125 C-3.73875 8.08375 -4.8525 8.0425 -6 8 C-6 7.34 -6 6.68 -6 6 C-5.195625 5.7525 -4.39125 5.505 -3.5625 5.25 C-0.828919 4.27761141 -0.828919 4.27761141 -0.1875 1.875 C-0.125625 1.25625 -0.06375 0.6375 0 0 Z " fill="#DDDDD6" transform="translate(123,40)"/>
<path d="M0 0 C0.33 0 0.66 0 1 0 C1.04898437 0.90363281 1.09796875 1.80726563 1.1484375 2.73828125 C1.22320312 3.91777344 1.29796875 5.09726563 1.375 6.3125 C1.44460938 7.48425781 1.51421875 8.65601563 1.5859375 9.86328125 C1.78613747 13.15699887 1.78613747 13.15699887 4 16 C4.125 18.6875 4.125 18.6875 4 21 C3.01 20.67 2.02 20.34 1 20 C-0.47271188 16.06784345 -0.11005061 11.89056046 -0.0625 7.75 C-0.05798828 7.00492188 -0.05347656 6.25984375 -0.04882812 5.4921875 C-0.03709246 3.6614236 -0.0191585 1.83070127 0 0 Z " fill="#5594B5" transform="translate(281,144)"/>
<path d="M0 0 C0.33 0 0.66 0 1 0 C1.04898437 0.85464844 1.09796875 1.70929688 1.1484375 2.58984375 C1.22320312 3.69457031 1.29796875 4.79929688 1.375 5.9375 C1.44460938 7.03964844 1.51421875 8.14179688 1.5859375 9.27734375 C1.72257812 10.17582031 1.85921875 11.07429687 2 12 C2.66 12.33 3.32 12.66 4 13 C4 15.31 4 17.62 4 20 C2.015625 19.04296875 2.015625 19.04296875 0 17 C-0.52039056 14.09705206 -0.37530743 11.24999543 -0.25 8.3125 C-0.23195313 7.51521484 -0.21390625 6.71792969 -0.1953125 5.89648438 C-0.14822247 3.93047551 -0.07647899 1.96508506 0 0 Z " fill="#66B1D5" transform="translate(285,144)"/>
<path d="M0 0 C0.66 0.33 1.32 0.66 2 1 C0.66511872 4.59391114 -0.96022723 7.75490696 -3 11 C-3.99 10.67 -4.98 10.34 -6 10 C-5.18957164 8.51969728 -4.37659652 7.04078858 -3.5625 5.5625 C-2.88380859 4.32693359 -2.88380859 4.32693359 -2.19140625 3.06640625 C-1 1 -1 1 0 0 Z " fill="#337DA5" transform="translate(97,234)"/>
<path d="M0 0 C0.99 0.33 1.98 0.66 3 1 C2.34 1.66 1.68 2.32 1 3 C0.75746187 5.21072977 0.75746187 5.21072977 0.875 7.625 C0.89304688 8.44226563 0.91109375 9.25953125 0.9296875 10.1015625 C0.95289063 10.72804687 0.97609375 11.35453125 1 12 C0.01 12.33 -0.98 12.66 -2 13 C-3.17051429 10.65897141 -3.1992246 9.10647047 -3.25 6.5 C-3.27578125 5.7059375 -3.3015625 4.911875 -3.328125 4.09375 C-3.21984375 3.4028125 -3.1115625 2.711875 -3 2 C-2.01 1.34 -1.02 0.68 0 0 Z " fill="#D4E5EE" transform="translate(44,162)"/>
<path d="M0 0 C0.3682455 7.48765844 0.3682455 7.48765844 -1.4375 10 C-3 11 -3 11 -4 11 C-4.3682455 3.51234156 -4.3682455 3.51234156 -2.5625 1 C-1 0 -1 0 0 0 Z " fill="#74C0E3" transform="translate(289,133)"/>
<path d="M0 0 C3.375 0.25 3.375 0.25 7 1 C8.4375 3.0625 8.4375 3.0625 9 5 C5.20442119 5 3.37097383 4.49821059 0 3 C0 2.01 0 1.02 0 0 Z " fill="#458AAE" transform="translate(166,30)"/>
<path d="M0 0 C1.67542976 0.28604898 3.34385343 0.61781233 5 1 C3.02 3.97 3.02 3.97 1 7 C0.01 6.34 -0.98 5.68 -2 5 C-1.125 1.125 -1.125 1.125 0 0 Z " fill="#D0DBDC" transform="translate(222,60)"/>
<path d="M0 0 C0.66 0.33 1.32 0.66 2 1 C2.625 3.0625 2.625 3.0625 3 5 C1.02 5.66 -0.96 6.32 -3 7 C-3.66 6.34 -4.32 5.68 -5 5 C-3.35 3.35 -1.7 1.7 0 0 Z " fill="#2F7BA4" transform="translate(195,44)"/>
<path d="M0 0 C0.33 0.99 0.66 1.98 1 3 C3.64 3 6.28 3 9 3 C9 3.33 9 3.66 9 4 C6.36 4 3.72 4 1 4 C0.67 5.32 0.34 6.64 0 8 C0 6.68 0 5.36 0 4 C-1.98 4 -3.96 4 -6 4 C-4.03617993 2.49440461 -2.21736634 1.10868317 0 0 Z " fill="#173D51" transform="translate(84,14)"/>
<path d="M0 0 C-4.74705277 3.16470185 -8.31771295 3.10927475 -14 3 C-13.1028125 2.566875 -13.1028125 2.566875 -12.1875 2.125 C-7.18345038 -0.44851123 -5.74472115 -1.08390965 0 0 Z " fill="#468AAE" transform="translate(174,14)"/>
<path d="M0 0 C0.99 0.33 1.98 0.66 3 1 C2.01 2.32 1.02 3.64 0 5 C1.98 5.66 3.96 6.32 6 7 C5.67 7.66 5.34 8.32 5 9 C2.69 8.34 0.38 7.68 -2 7 C-2 6.34 -2 5.68 -2 5 C-2.66 5 -3.32 5 -4 5 C-2.93453047 2.86906094 -1.70840281 1.63412443 0 0 Z " fill="#C3DBE6" transform="translate(244,200)"/>
<path d="M0 0 C0.66 0 1.32 0 2 0 C2 1.32 2 2.64 2 4 C-1.3 4.33 -4.6 4.66 -8 5 C-7.67 4.01 -7.34 3.02 -7 2 C-4.69 2.33 -2.38 2.66 0 3 C0 2.01 0 1.02 0 0 Z " fill="#E1DDD4" transform="translate(143,40)"/>
<path d="M0 0 C0.66 0 1.32 0 2 0 C2 2.97 2 5.94 2 9 C0.68 8.67 -0.64 8.34 -2 8 C-1.34 5.36 -0.68 2.72 0 0 Z " fill="#347EA6" transform="translate(199,45)"/>
<path d="M0 0 C2.64 0.66 5.28 1.32 8 2 C6.3125 3.5625 6.3125 3.5625 4 5 C1.25 4.6875 1.25 4.6875 -1 4 C-0.67 2.68 -0.34 1.36 0 0 Z " fill="#77C4E8" transform="translate(189,14)"/>
<path d="M0 0 C3.96 0 7.92 0 12 0 C7.5 3.375 7.5 3.375 3.25 3.1875 C2.45078125 3.16042969 1.6515625 3.13335937 0.828125 3.10546875 C0.22484375 3.07066406 -0.3784375 3.03585937 -1 3 C-0.67 2.01 -0.34 1.02 0 0 Z " fill="#83D2F6" transform="translate(133,9)"/>
<path d="M0 0 C0.33 0 0.66 0 1 0 C1 3.3 1 6.6 1 10 C0.67 10 0.34 10 0 10 C-0.33 8.35 -0.66 6.7 -1 5 C-2.98 5.99 -2.98 5.99 -5 7 C-3.47793991 4.37098712 -2.15634036 2.15634036 0 0 Z " fill="#2A77A0" transform="translate(262,158)"/>
<path d="M0 0 C0.33 0 0.66 0 1 0 C1 2.97 1 5.94 1 9 C-0.32 8.34 -1.64 7.68 -3 7 C-2.38722388 4.03824877 -1.74627478 2.61941217 0 0 Z " fill="#D0DBDC" transform="translate(209,52)"/>
<path d="M0 0 C0.66 0.66 1.32 1.32 2 2 C0.19873295 4.27528469 -0.6366157 4.94682181 -3.5625 5.375 C-4.7690625 5.189375 -4.7690625 5.189375 -6 5 C-6.66 4.01 -7.32 3.02 -8 2 C-6.71254964 1.61077082 -5.41980403 1.23901964 -4.125 0.875 C-3.04605469 0.56175781 -3.04605469 0.56175781 -1.9453125 0.2421875 C-1.30335938 0.16226563 -0.66140625 0.08234375 0 0 Z " fill="#D7DAD4" transform="translate(175,41)"/>
<path d="M0 0 C0.66 0.99 1.32 1.98 2 3 C1.125 6.1875 1.125 6.1875 0 9 C-0.99 8.67 -1.98 8.34 -3 8 C-1.125 1.125 -1.125 1.125 0 0 Z " fill="#327DA4" transform="translate(104,241)"/>
<path d="M0 0 C1.74627478 2.61941217 2.38722388 4.03824877 3 7 C1.68 7.33 0.36 7.66 -1 8 C-1.04241723 5.66705225 -1.04092937 3.33297433 -1 1 C-0.67 0.67 -0.34 0.34 0 0 Z " fill="#1F485E" transform="translate(18,197)"/>
<path d="M0 0 C0.66 0 1.32 0 2 0 C1.67 3.3 1.34 6.6 1 10 C-2 6 -2 6 -1.75 3.3125 C-1 1 -1 1 0 0 Z " fill="#2E79A2" transform="translate(17,122)"/>
<path d="M0 0 C0.99 0.66 1.98 1.32 3 2 C2.01 4.64 1.02 7.28 0 10 C-0.66 9.67 -1.32 9.34 -2 9 C-1.34 6.03 -0.68 3.06 0 0 Z " fill="#307BA4" transform="translate(188,35)"/>
<path d="M0 0 C0.99 0.33 1.98 0.66 3 1 C3 1.66 3 2.32 3 3 C1.37373596 4.38232443 -0.2925002 5.71937515 -2 7 C-2.6875 5.1875 -2.6875 5.1875 -3 3 C-1.5625 1.25 -1.5625 1.25 0 0 Z " fill="#DCDFD8" transform="translate(168,33)"/>
<path d="M0 0 C3.3125 -0.1875 3.3125 -0.1875 7 0 C7.99 0.99 8.98 1.98 10 3 C7.03 3 4.06 3 1 3 C0.67 2.01 0.34 1.02 0 0 Z " fill="#83D3F6" transform="translate(134,284)"/>
<path d="M0 0 C1.9375 0.6875 1.9375 0.6875 4 2 C4.75 4.625 4.75 4.625 5 7 C3.68 7 2.36 7 1 7 C0.67 4.69 0.34 2.38 0 0 Z " fill="#E0E2DC" transform="translate(235,72)"/>
<path d="M0 0 C2.64 0.33 5.28 0.66 8 1 C7.67 1.99 7.34 2.98 7 4 C4.69 3.67 2.38 3.34 0 3 C0 2.01 0 1.02 0 0 Z " fill="#3B83A9" transform="translate(128,13)"/>
<path d="M0 0 C0.66 0 1.32 0 2 0 C1.4140625 6.15234375 1.4140625 6.15234375 1 8 C0.01 8.495 0.01 8.495 -1 9 C-1.625 6.1875 -1.625 6.1875 -2 3 C-1.34 2.01 -0.68 1.02 0 0 Z " fill="#D5D6CF" transform="translate(203,42)"/>
<path d="M0 0 C0.66 0 1.32 0 2 0 C2 1.32 2 2.64 2 4 C-0.64 4 -3.28 4 -6 4 C-6 3.34 -6 2.68 -6 2 C-4.02 2 -2.04 2 0 2 C0 1.34 0 0.68 0 0 Z " fill="#E9E6DD" transform="translate(142,30)"/>
<path d="M0 0 C1.98 0.99 1.98 0.99 4 2 C3.67 3.32 3.34 4.64 3 6 C2.01 5.67 1.02 5.34 0 5 C0 3.35 0 1.7 0 0 Z " fill="#EFF6F9" transform="translate(176,247)"/>
<path d="M0 0 C0.66 0.66 1.32 1.32 2 2 C1.360625 2.268125 0.72125 2.53625 0.0625 2.8125 C-2.33131686 3.88667752 -2.33131686 3.88667752 -3 7 C-3.99 5.68 -4.98 4.36 -6 3 C-5.195625 2.690625 -4.39125 2.38125 -3.5625 2.0625 C-1.10919595 1.23664655 -1.10919595 1.23664655 0 0 Z " fill="#81AFC4" transform="translate(67,73)"/>
<path d="M0 0 C0.4125 0.61875 0.825 1.2375 1.25 1.875 C3.05573879 4.06768281 4.4090534 4.92788417 7 6 C5.02 6.33 3.04 6.66 1 7 C-0.0625 5.1875 -0.0625 5.1875 -1 3 C-0.67 2.01 -0.34 1.02 0 0 Z " fill="#2876A0" transform="translate(85,51)"/>
<path d="M0 0 C2.6875 0.3125 2.6875 0.3125 5 1 C4.34 2.32 3.68 3.64 3 5 C2.67 4.34 2.34 3.68 2 3 C0.35 3 -1.3 3 -3 3 C-1.8125 1.4375 -1.8125 1.4375 0 0 Z " fill="#3D85AB" transform="translate(118,38)"/>
<path d="M0 0 C2.475 0.495 2.475 0.495 5 1 C4.67 2.32 4.34 3.64 4 5 C2.68 4.67 1.36 4.34 0 4 C0 2.68 0 1.36 0 0 Z " fill="#E4E5DF" transform="translate(183,35)"/>
<path d="M0 0 C0.99 0.33 1.98 0.66 3 1 C-1.39453125 5.00390625 -1.39453125 5.00390625 -3 6 C-3.99 5.67 -4.98 5.34 -6 5 C-1.60546875 0.99609375 -1.60546875 0.99609375 0 0 Z " fill="#3F86AB" transform="translate(241,208)"/>
<path d="M0 0 C0 3 0 3 -1.375 4.4375 C-1.91125 4.953125 -2.4475 5.46875 -3 6 C-4.17574711 8.09989652 -4.17574711 8.09989652 -5 10 C-4.50769231 3.47692308 -4.50769231 3.47692308 -1.9375 1.0625 C-0.9784375 0.5365625 -0.9784375 0.5365625 0 0 Z " fill="#307BA3" transform="translate(229,207)"/>
<path d="M0 0 C0.625 1.8125 0.625 1.8125 1 4 C-1 7 -1 7 -3 8 C-2.74438677 5.6568787 -2.40729228 3.32156597 -2 1 C-1.34 0.67 -0.68 0.34 0 0 Z " fill="#4289AE" transform="translate(18,167)"/>
<path d="M0 0 C0 0.66 0 1.32 0 2 C-1.98 2.33 -3.96 2.66 -6 3 C-6 2.01 -6 1.02 -6 0 C-3.50907189 -1.24546405 -2.58919267 -0.7767578 0 0 Z " fill="#80CFF2" transform="translate(189,280)"/>
<path d="M0 0 C0.33 0.66 0.66 1.32 1 2 C2.65 2 4.3 2 6 2 C6 2.66 6 3.32 6 4 C3.36 4 0.72 4 -2 4 C-1.34 2.68 -0.68 1.36 0 0 Z " fill="#23739E" transform="translate(137,255)"/>
<path d="M0 0 C2.31 0.33 4.62 0.66 7 1 C7 1.66 7 2.32 7 3 C5.02 3.33 3.04 3.66 1 4 C0.67 2.68 0.34 1.36 0 0 Z " fill="#3880A7" transform="translate(136,247)"/>
<path d="M0 0 C0 0.99 0 1.98 0 3 C-2 4.6875 -2 4.6875 -4 6 C-4.33 4.68 -4.66 3.36 -5 2 C-2 0 -2 0 0 0 Z " fill="#3680A7" transform="translate(207,231)"/>
<path d="M0 0 C0.33 0 0.66 0 1 0 C1.33 2.31 1.66 4.62 2 7 C1.01 7.66 0.02 8.32 -1 9 C-1.09765625 2.84765625 -1.09765625 2.84765625 -1 1 C-0.67 0.67 -0.34 0.34 0 0 Z " fill="#4388AC" transform="translate(257,165)"/>
<path d="M0 0 C0.33 0.99 0.66 1.98 1 3 C0.319375 3.61875 0.319375 3.61875 -0.375 4.25 C-2.05950374 6.06408095 -2.99265971 7.75285627 -4 10 C-3.38461538 3.47692308 -3.38461538 3.47692308 -1.4375 1.0625 C-0.7259375 0.5365625 -0.7259375 0.5365625 0 0 Z " fill="#28769F" transform="translate(45,149)"/>
<path d="M0 0 C0.99 0.33 1.98 0.66 3 1 C2.01 2.98 1.02 4.96 0 7 C-0.66 6.34 -1.32 5.68 -2 5 C-1.46428571 1.46428571 -1.46428571 1.46428571 0 0 Z " fill="#2A77A1" transform="translate(220,58)"/>
<path d="M0 0 C1.32 0.99 2.64 1.98 4 3 C1 5 1 5 -2 5 C-2 4.01 -2 3.02 -2 2 C-1.34 2 -0.68 2 0 2 C0 1.34 0 0.68 0 0 Z " fill="#E9E4DA" transform="translate(112,47)"/>
<path d="M0 0 C0.33 0 0.66 0 1 0 C1.1875 2.375 1.1875 2.375 1 5 C0.01 5.66 -0.98 6.32 -2 7 C-2.33 5.68 -2.66 4.36 -3 3 C-2.34 3 -1.68 3 -1 3 C-0.67 2.01 -0.34 1.02 0 0 Z " fill="#DEDCD4" transform="translate(108,38)"/>
</svg>
